<svg width="42" height="50" viewBox="0 0 42 50" fill="none" xmlns="http://www.w3.org/2000/svg">
<path d="M10.4463 19.139C12.0188 19.139 13.1982 18.8278 13.9284 18.2054C14.7146 17.583 15.0516 16.5975 15.0516 15.3008C15.0516 13.9523 14.6585 12.9668 13.9284 12.3444C13.1982 11.722 12.0188 11.3589 10.3901 11.3589H6.6272V22.1473H8.98603V19.139H10.4463ZM8.98603 13.4336H10.3339C11.1202 13.4336 11.6818 13.5892 12.075 13.8485C12.4681 14.1079 12.6366 14.5747 12.6366 15.1971C12.6366 15.8195 12.4681 16.2863 12.1873 16.5975C11.9065 16.9087 11.3449 17.0643 10.5586 17.0643H8.98603V13.4336Z" fill="#64FFDA"/>
<path d="M24.3184 20.6431C25.3293 19.6577 25.7786 18.361 25.7786 16.6494C25.7786 14.9896 25.2732 13.6411 24.2622 12.7075C23.2513 11.7738 21.7911 11.307 19.8816 11.307H16.1187V22.0954H19.7692C21.7911 22.1473 23.3075 21.6286 24.3184 20.6431ZM22.5212 19.1909C21.9596 19.7614 21.1171 20.0207 20.05 20.0207H18.5336V13.4336H19.8816C21.061 13.4336 21.9596 13.7448 22.5774 14.3153C23.139 14.8859 23.476 15.7158 23.476 16.7531C23.4198 17.7904 23.0828 18.6203 22.5212 19.1909Z" fill="#64FFDA"/>
<path d="M34.3716 13.4855V11.3589H27.0704V22.1473H29.4293V17.8942H34.0908V15.8195H29.4293V13.4855H34.3716Z" fill="#64FFDA"/>
<path d="M37.4605 0H3.53825C1.57256 0 0 1.45228 0 3.26763V41.5456C0 43.361 1.57256 44.8133 3.53825 44.8133H11.3449L10.2778 43.8278L9.21069 42.8423H3.59441C2.80814 42.8423 2.19035 42.2718 2.19035 41.5456V3.26763C2.19035 2.54149 2.80814 1.97095 3.59441 1.97095H37.5729C38.3591 1.97095 38.9769 2.54149 38.9769 3.26763V41.5456C38.9769 42.2718 38.3591 42.8423 37.5729 42.8423H32.7429L31.6758 43.8278L30.6087 44.8133H37.5729C39.5386 44.8133 41.1111 43.361 41.1111 41.5456V3.26763C41.0549 1.45228 39.4262 0 37.4605 0Z" fill="#64FFDA"/>
<path d="M32.9114 38.6929L25.5541 38.6411V27.4377H15.4448V38.4855L8.08752 38.3817L20.668 50L32.9114 38.6929Z" fill="#64FFDA"/>
</svg>
