<svg width="24" height="24" viewBox="0 0 24 24" fill="none" xmlns="http://www.w3.org/2000/svg">
<path d="M12 0C5.37 0 0 5.36669 0 11.9926C0 17.2993 3.435 21.7816 8.205 23.3706C8.805 23.4755 9.03 23.1157 9.03 22.8009C9.03 22.5161 9.015 21.5717 9.015 20.5673C6 21.122 5.22 19.8328 4.98 19.1582C4.845 18.8134 4.26 17.7491 3.75 17.4642C3.33 17.2394 2.73 16.6847 3.735 16.6697C4.68 16.6547 5.355 17.5392 5.58 17.899C6.66 19.7128 8.385 19.2032 9.075 18.8884C9.18 18.1088 9.495 17.5842 9.84 17.2843C7.17 16.9845 4.38 15.9502 4.38 11.363C4.38 10.0588 4.845 8.97946 5.61 8.13998C5.49 7.84017 5.07 6.61092 5.73 4.96194C5.73 4.96194 6.735 4.64714 9.03 6.19118C9.99 5.92135 11.01 5.78643 12.03 5.78643C13.05 5.78643 14.07 5.92135 15.03 6.19118C17.325 4.63214 18.33 4.96194 18.33 4.96194C18.99 6.61092 18.57 7.84017 18.45 8.13998C19.215 8.97946 19.68 10.0438 19.68 11.363C19.68 15.9652 16.875 16.9845 14.205 17.2843C14.64 17.6591 15.015 18.3787 15.015 19.503C15.015 21.107 15 22.3962 15 22.8009C15 23.1157 15.225 23.4905 15.825 23.3706C18.2072 22.5669 20.2773 21.0368 21.7438 18.9957C23.2103 16.9546 23.9994 14.5054 24 11.9926C24 5.36669 18.63 0 12 0Z" fill="black"/>
</svg>
