<svg width="64" height="58" viewBox="0 0 64 58" fill="none" xmlns="http://www.w3.org/2000/svg">
<g filter="url(#filter0_d_3_21)">
<path d="M11.3495 10.637L4.11574 10.5769L14.0116 0.0600964L13.9537 7.8726C13.8958 9.4351 12.7384 10.637 11.3495 10.637ZM32.7037 34.1947C34.9028 34.375 37.5069 34.976 38.2014 36.6587C38.4329 37.1995 38.6065 38.101 37.912 39.3029C37.6227 39.7837 37.2176 40.024 36.6968 40.024C36.2917 40.024 35.0185 40.024 31.8935 35.9976C31.6042 35.9976 31.2569 35.9976 30.9676 35.9976C30.5625 35.9976 30.331 35.9976 30.2153 36.0577C26.7431 36.5385 22.8079 37.8606 19.4514 39.6635C19.2199 40.0841 19.0463 40.5048 18.8148 40.8654C18.7569 40.9856 18.6412 41.1659 18.5255 41.3462C16.6736 44.7115 14.6481 47.7764 12.8542 47.7764C12.4491 47.7764 11.9282 47.6563 11.4653 46.9952C11.0602 46.4543 10.9444 45.7933 11.0023 45.1322C11.2917 43.2692 13.3171 41.5865 15.1111 40.3245L15.169 40.2644C16.0949 39.6034 17.1366 38.9423 18.1782 38.3413C19.625 35.1563 20.8981 30.649 21.8819 26.6226H21.3611C18.9306 26.6226 16.963 24.5793 16.963 22.0553V8.17308C16.963 5.64904 18.9306 3.60577 21.3611 3.60577H43.0046C43.0046 3.24519 43.0046 3.0649 43.0046 3.0649C43.0046 1.38221 41.6157 0 39.9375 0H15.6898L15.6319 7.8726C15.6319 10.3966 13.6644 12.4399 11.2917 12.4399H4V46.9351C4 48.6178 5.38889 50 7.06713 50H42.9468C43.0046 48.4375 43.0046 37.3798 43.0625 26.4423H27.7847C29.2894 29.1466 31.0255 31.9111 32.7037 34.1947ZM25.875 26.3822H23.6759C22.8657 29.988 21.8241 33.774 20.6088 36.899L20.7824 36.8389L20.7245 36.9591C23.7338 35.5769 27.0324 34.6154 30.0417 34.1346C30.1574 34.1346 30.331 34.0745 30.5046 34.0745L30.4468 33.9543H30.5046C28.8843 31.7308 27.3218 29.0264 25.875 26.3822ZM36.8125 37.4399C36.6389 37.0192 35.8287 36.5385 34.4398 36.238C35.6551 37.6202 36.4074 38.101 36.6968 38.1611C36.8125 37.8606 36.8704 37.6202 36.8125 37.4399ZM12.7384 45.2524C12.7384 45.4327 12.7384 45.5529 12.8542 45.7332C12.912 45.8534 12.9699 45.8534 12.9699 45.8534C13.375 45.8534 14.3588 45.2524 16.6736 41.2861C16.5 41.4063 16.3264 41.5264 16.2106 41.6466L16.1528 41.7067C14.0116 43.149 12.8542 44.4111 12.7384 45.2524ZM39.6481 12.1995H38.9537V17.2476H39.6481C40.2269 17.2476 40.6319 17.1875 40.8634 17.0673C41.0949 16.9471 41.3264 16.7067 41.4421 16.3462C41.5579 15.9856 41.6736 15.5048 41.6736 14.7236C41.6736 13.762 41.5 13.0409 41.2106 12.6803C40.9213 12.3798 40.4005 12.1995 39.6481 12.1995ZM30.7361 12.0192H29.9259V14.0625H30.6204C31.1412 14.0625 31.5463 13.9423 31.7199 13.762C31.9514 13.5817 32.0671 13.3413 32.0671 13.0409C32.0671 12.7404 31.9514 12.5 31.7778 12.3197C31.6042 12.0793 31.2569 12.0192 30.7361 12.0192ZM59.5556 8.65385V21.3942C59.5556 23.0769 58.2245 24.4591 56.6042 24.4591H21.9398C20.3194 24.4591 18.9884 23.0769 18.9884 21.3942V8.65385C18.9884 6.97115 20.3194 5.58894 21.9398 5.58894H56.662C58.2824 5.58894 59.5556 6.97115 59.5556 8.65385ZM34.7292 12.9808C34.7292 12.0793 34.4977 11.3582 33.9769 10.8774C33.456 10.3966 32.7037 10.1563 31.7199 10.1563H27.1481V19.4111H29.9259V15.9255H31.4306C32.5301 15.9255 33.3981 15.6851 33.919 15.1442C34.4398 14.6034 34.7292 13.8822 34.7292 12.9808ZM44.4514 14.7236C44.4514 14.0625 44.3935 13.4615 44.2199 12.9207C44.0463 12.3798 43.8148 11.8389 43.5255 11.4183C43.1782 10.9976 42.7731 10.637 42.3102 10.4567C41.7893 10.2163 41.1528 10.0962 40.3426 10.0962H36.2338V19.351H40.3426C40.8056 19.351 41.3843 19.2909 41.963 19.1106C42.4259 18.9904 42.831 18.75 43.1782 18.3894C43.5833 18.0288 43.8727 17.5481 44.1042 17.0072C44.3356 16.4663 44.4514 15.6851 44.4514 14.7236ZM52.7268 10.0962H45.8981V19.351H48.6759V15.5649H52.1481V13.7019H48.6759V12.0793H52.7268V10.0962Z" fill="#CCD6F6"/>
</g>
<defs>
<filter id="filter0_d_3_21" x="0" y="0" width="63.5555" height="58" filterUnits="userSpaceOnUse" color-interpolation-filters="sRGB">
<feFlood flood-opacity="0" result="BackgroundImageFix"/>
<feColorMatrix in="SourceAlpha" type="matrix" values="0 0 0 0 0 0 0 0 0 0 0 0 0 0 0 0 0 0 127 0" result="hardAlpha"/>
<feOffset dy="4"/>
<feGaussianBlur stdDeviation="2"/>
<feComposite in2="hardAlpha" operator="out"/>
<feColorMatrix type="matrix" values="0 0 0 0 0 0 0 0 0 0 0 0 0 0 0 0 0 0 0.25 0"/>
<feBlend mode="normal" in2="BackgroundImageFix" result="effect1_dropShadow_3_21"/>
<feBlend mode="normal" in="SourceGraphic" in2="effect1_dropShadow_3_21" result="shape"/>
</filter>
</defs>
</svg>
